<?xml version="1.0" standalone="no"?>
<!DOCTYPE svg PUBLIC "-//W3C//DTD SVG 20010904//EN"
 "http://www.w3.org/TR/2001/REC-SVG-20010904/DTD/svg10.dtd">
<svg version="1.0" xmlns="http://www.w3.org/2000/svg"
 width="847.000000pt" height="847.000000pt" viewBox="0 0 847.000000 847.000000"
 preserveAspectRatio="xMidYMid meet">
<metadata>
Created by potrace 1.14, written by Peter Selinger 2001-2017
</metadata>
<g transform="translate(0.000000,847.000000) scale(0.100000,-0.100000)"
fill="#000000" stroke="none">
<path d="M6045 6750 c-70 -8 -144 -20 -240 -39 -27 -5 -77 -14 -110 -20 -34
-6 -124 -27 -200 -47 -77 -20 -162 -42 -190 -49 -27 -7 -84 -24 -125 -38 -41
-14 -100 -32 -130 -41 -60 -19 -156 -53 -180 -66 -9 -4 -31 -11 -50 -15 -19
-4 -41 -11 -50 -15 -8 -5 -42 -18 -75 -30 -102 -37 -190 -73 -200 -82 -5 -4
-17 -8 -27 -8 -10 0 -21 -6 -23 -12 -3 -7 -15 -14 -28 -14 -12 -1 -49 -14 -82
-29 -33 -15 -76 -34 -95 -43 -19 -8 -71 -32 -115 -52 -44 -20 -95 -42 -112
-49 -18 -8 -33 -20 -33 -28 0 -9 -6 -13 -14 -10 -8 3 -39 -6 -68 -21 -29 -15
-74 -36 -100 -47 -27 -10 -48 -23 -48 -27 0 -4 -7 -8 -15 -8 -8 0 -15 -7 -15
-15 0 -9 -9 -15 -23 -15 -21 0 -190 -80 -209 -98 -4 -4 -3 -14 2 -22 8 -12 10
-12 10 -1 0 10 9 12 34 8 35 -6 78 14 63 29 -4 4 -7 2 -7 -4 0 -7 -5 -12 -11
-12 -8 0 -8 5 1 15 10 12 16 13 27 4 11 -10 11 -14 0 -28 -18 -22 -10 -51 14
-51 12 0 23 -10 29 -25 5 -14 14 -25 20 -25 6 0 15 -11 20 -24 8 -21 15 -24
51 -23 23 1 44 7 46 13 4 13 -46 38 -71 35 -17 -2 -18 2 -12 48 5 41 4 53 -9
57 -18 7 -20 44 -2 44 8 0 7 3 -2 9 -24 15 69 1 107 -16 18 -8 32 -20 31 -26
-4 -36 1 -39 37 -18 42 25 44 25 44 6 0 -8 -7 -15 -15 -15 -8 0 -15 -6 -15
-14 0 -7 -7 -19 -15 -26 -13 -11 -13 -15 0 -33 17 -24 20 -57 5 -57 -5 0 -10
9 -10 20 0 13 -10 24 -25 30 -14 5 -24 13 -23 17 0 5 -2 16 -7 26 -4 10 -5 21
-2 24 4 3 -3 19 -14 34 -14 21 -29 29 -49 29 -45 0 -46 -19 0 -26 26 -4 40
-12 40 -22 0 -11 -7 -13 -30 -8 -22 4 -30 2 -30 -9 0 -8 6 -15 13 -15 17 0 77
-58 77 -75 0 -30 -41 -52 -88 -46 -6 1 -12 -3 -12 -9 0 -5 7 -10 15 -10 17 0
48 -29 65 -59 8 -16 21 -21 58 -22 45 -1 45 -1 14 -9 -43 -10 -51 -19 -24 -27
13 -3 22 -13 22 -24 0 -11 5 -19 10 -19 6 0 10 -7 10 -15 0 -8 -4 -15 -9 -15
-11 0 -38 25 -43 40 -6 19 -36 0 -41 -26 -5 -30 -2 -33 63 -38 29 -2 61 -11
71 -20 11 -9 26 -16 34 -16 8 0 14 -3 14 -7 -5 -33 1 -41 26 -30 30 14 33 37
4 37 -11 0 -17 5 -14 10 3 6 17 10 31 10 13 0 24 -4 24 -10 0 -17 35 -11 58
10 12 11 28 20 35 20 22 0 68 26 60 33 -3 4 -1 7 5 7 18 0 15 -8 -29 -82 l-41
-69 44 -77 c24 -42 111 -193 192 -334 l148 -258 357 -2 c196 0 369 -2 384 -2
15 -1 31 1 35 4 4 3 55 86 112 185 57 99 142 245 188 325 47 80 85 150 85 155
0 6 -75 140 -167 298 -91 159 -164 292 -161 297 6 10 60 26 260 80 126 34 213
53 293 65 42 7 52 21 30 43 -7 7 -9 12 -5 12 3 0 15 -10 26 -21 20 -21 22 -22
98 -8 106 19 450 19 518 0 160 -44 193 -60 285 -141 23 -21 85 -135 103 -190
9 -25 21 -78 27 -118 13 -81 3 -188 -31 -317 -29 -114 -34 -125 -96 -253 -61
-126 -62 -132 -10 -132 14 0 31 14 47 37 14 20 30 41 35 47 18 20 119 176 153
238 113 203 164 357 193 581 14 108 -6 302 -41 407 -67 199 -116 276 -235 369
-55 42 -181 95 -305 128 -64 17 -531 26 -645 13z m-1080 -340 c3 -5 1 -10 -4
-10 -6 0 -11 5 -11 10 0 6 2 10 4 10 3 0 8 -4 11 -10z m-131 -11 c-2 -4 2 -10
8 -12 7 -3 1 -6 -14 -6 -26 -1 -35 8 -23 21 8 8 35 5 29 -3z m46 -18 c0 -5 8
-12 18 -14 10 -3 6 -5 -10 -6 -19 -1 -28 4 -28 14 0 8 5 15 10 15 6 0 10 -4
10 -9z m895 -109 c-3 -3 -11 0 -18 7 -9 10 -8 11 6 5 10 -3 15 -9 12 -12z
m-1065 -17 c10 -12 10 -15 -3 -15 -8 0 -17 7 -21 15 -3 8 -2 15 3 15 5 0 14
-7 21 -15z m410 -29 c0 -3 -4 -8 -10 -11 -5 -3 -10 -1 -10 4 0 6 5 11 10 11 6
0 10 -2 10 -4z m510 -42 c0 -2 -7 -4 -15 -4 -8 0 -15 4 -15 10 0 5 7 7 15 4 8
-4 15 -8 15 -10z m-638 -44 c24 -22 18 -26 -13 -10 -10 6 -19 15 -19 20 0 15
9 12 32 -10z m382 -15 c3 -8 1 -15 -4 -15 -6 0 -10 7 -10 15 0 8 2 15 4 15 2
0 6 -7 10 -15z m52 -73 c-8 -7 -36 25 -36 40 1 7 9 3 21 -11 11 -13 17 -26 15
-29z m-611 10 c-3 -3 -11 0 -18 7 -9 10 -8 11 6 5 10 -3 15 -9 12 -12z m485
-2 c0 -5 -2 -10 -4 -10 -3 0 -8 5 -11 10 -3 6 -1 10 4 10 6 0 11 -4 11 -10z
m-925 -20 c3 -5 1 -10 -4 -10 -6 0 -11 5 -11 10 0 6 2 10 4 10 3 0 8 -4 11
-10z m470 0 c3 -6 -1 -7 -9 -4 -18 7 -21 14 -7 14 6 0 13 -4 16 -10z m-79 -25
c17 -13 17 -14 2 -15 -10 0 -18 4 -18 9 0 5 -8 12 -17 14 -14 4 -15 5 -2 6 8
0 24 -6 35 -14z m367 8 c-7 -2 -19 -2 -25 0 -7 3 -2 5 12 5 14 0 19 -2 13 -5z
m-983 -38 c5 3 11 1 14 -4 4 -5 -2 -8 -11 -7 -10 2 -18 9 -19 17 -1 9 0 10 3
1 3 -7 8 -10 13 -7z m120 -5 c0 -11 -2 -20 -4 -20 -2 0 -6 9 -9 20 -3 11 -1
20 4 20 5 0 9 -9 9 -20z m-230 -20 c0 -5 -5 -10 -11 -10 -5 0 -7 5 -4 10 3 6
8 10 11 10 2 0 4 -4 4 -10z m455 0 c3 -5 -3 -10 -15 -10 -12 0 -18 5 -15 10 3
6 10 10 15 10 5 0 12 -4 15 -10z m72 -10 l26 -20 -27 0 c-19 0 -25 -4 -20 -12
4 -7 4 -10 -1 -6 -4 4 -14 0 -22 -10 -11 -15 -12 -14 -3 11 6 16 6 27 0 27 -5
0 -7 7 -4 15 8 20 21 19 51 -5z m-344 3 c-7 -2 -21 -2 -30 0 -10 3 -4 5 12 5
17 0 24 -2 18 -5z m197 -3 c-13 -9 -13 -11 0 -19 8 -6 11 -14 6 -18 -5 -4 -11
-2 -13 5 -3 6 -12 12 -21 12 -13 0 -12 3 4 15 10 8 24 14 29 15 6 0 3 -5 -5
-10z m583 3 c-7 -2 -19 -2 -25 0 -7 3 -2 5 12 5 14 0 19 -2 13 -5z m-1013 -15
c0 -4 -13 -8 -30 -8 -20 0 -30 -5 -30 -15 0 -8 7 -15 15 -15 8 0 15 -4 15 -10
0 -15 -16 -12 -30 5 -7 8 -19 15 -28 15 -13 0 -13 2 1 18 16 18 87 26 87 10z
m135 2 c3 -5 -1 -10 -9 -10 -9 0 -16 5 -16 10 0 6 4 10 9 10 6 0 13 -4 16 -10z
m-85 -25 c0 -8 -4 -15 -10 -15 -5 0 -10 7 -10 15 0 8 5 15 10 15 6 0 10 -7 10
-15z m284 -54 c-11 -12 -34 13 -34 36 l0 28 19 -30 c10 -16 17 -32 15 -34z
m59 52 c-7 -2 -19 -2 -25 0 -7 3 -2 5 12 5 14 0 19 -2 13 -5z m-487 -51 c-10
-2 -23 1 -29 7 -6 6 -21 11 -34 11 -30 0 -30 17 0 22 12 2 35 -5 52 -16 25
-18 27 -21 11 -24z m1587 -242 c92 -159 167 -292 167 -295 0 -4 -12 -5 -27 -3
-23 3 -46 37 -188 283 -142 245 -160 282 -147 293 9 6 19 12 22 12 4 0 82
-130 173 -290z m-1053 250 c0 -5 -5 -10 -11 -10 -5 0 -7 5 -4 10 3 6 8 10 11
10 2 0 4 -4 4 -10z m-150 -34 c10 -13 10 -16 -1 -16 -19 1 -49 25 -49 39 0 14
30 0 50 -23z m957 12 c6 -13 76 -137 157 -277 l147 -254 -62 -108 c-34 -60
-66 -109 -70 -109 -5 0 0 15 11 33 l19 33 -24 28 c-13 15 -29 25 -34 21 -7 -4
-11 4 -11 21 l0 27 -90 -5 c-49 -3 -90 -4 -90 -2 0 2 9 19 19 38 17 29 18 35
5 40 -13 5 -13 9 -1 28 32 51 28 105 -6 92 -9 -3 -14 -11 -10 -17 3 -6 1 -7
-6 -3 -7 5 -8 13 -3 19 13 19 15 77 2 77 -6 0 -10 -6 -9 -12 3 -28 -2 -37 -23
-40 -20 -3 -23 -9 -24 -48 0 -25 -5 -58 -12 -73 -7 -16 -12 -34 -12 -40 -1
-32 -16 -40 -53 -26 -20 7 -34 16 -31 21 3 4 -7 10 -21 14 -14 3 -25 10 -25
15 0 4 -16 11 -35 15 -19 3 -37 9 -40 13 -2 4 22 20 53 35 120 58 138 75 149
139 4 30 3 37 -11 37 -9 0 -16 7 -16 16 0 8 -7 22 -15 31 -14 13 -16 11 -21
-16 -8 -38 -12 -41 -41 -30 -14 5 -23 17 -24 31 -1 17 -2 18 -6 6 -3 -14 -15
-18 -48 -18 -24 0 -47 5 -50 10 -4 6 -12 7 -18 3 -7 -5 -37 -8 -68 -8 -48 1
-55 -1 -52 -16 3 -9 1 -19 -4 -22 -4 -3 -9 12 -11 33 -1 21 2 41 8 45 5 3 10
14 10 23 0 13 -2 13 -15 -4 -8 -10 -14 -14 -15 -9 0 19 19 39 39 40 11 1 18
-1 16 -5 -2 -3 0 -12 6 -20 6 -11 9 -6 9 18 0 17 3 31 8 30 4 -1 21 5 37 12
17 7 41 15 55 17 30 4 100 -22 100 -38 0 -5 5 -7 10 -4 6 3 10 1 10 -4 0 -6 7
-11 16 -11 23 0 7 18 -44 51 -70 44 -147 40 -218 -11 -56 -41 -129 -180 -94
-180 6 0 10 -7 10 -15 0 -8 9 -15 20 -15 11 0 20 -7 20 -16 0 -24 46 -79 85
-99 26 -15 32 -22 23 -32 -6 -7 -17 -13 -25 -13 -8 0 -35 -10 -61 -22 -43 -21
-63 -23 -256 -26 -198 -3 -208 -2 -202 15 4 10 76 136 159 280 l152 263 321 0
321 0 10 -22z m-1132 -8 c10 -11 13 -20 7 -20 -7 0 -12 5 -12 11 0 6 -7 9 -15
6 -15 -7 -29 6 -18 17 10 10 19 7 38 -14z m-78 -30 c13 0 23 -1 23 -3 0 -1 4
-17 9 -35 10 -34 -4 -47 -16 -14 -8 19 -43 51 -58 52 -16 0 -35 -38 -28 -56 4
-11 -1 -22 -12 -30 -28 -20 -43 -2 -36 43 5 32 12 40 41 50 21 6 39 7 45 2 5
-5 19 -9 32 -9z m433 -40 c0 -5 -5 -10 -11 -10 -5 0 -7 5 -4 10 3 6 8 10 11
10 2 0 4 -4 4 -10z m-100 -15 c7 -9 10 -18 6 -22 -3 -3 -6 -1 -6 5 0 7 -7 12
-15 12 -8 0 -15 5 -15 10 0 15 16 12 30 -5z m-91 -64 c16 -17 20 -26 12 -29
-7 -2 -19 5 -27 16 -8 12 -21 28 -29 36 -8 8 -15 18 -15 22 0 8 27 -13 59 -45z
m-257 17 c-16 -16 -15 -28 3 -28 16 0 55 -34 55 -49 0 -10 -52 -46 -62 -43 -5
1 -8 -2 -8 -7 0 -5 -7 -11 -15 -15 -9 -3 -15 0 -15 8 0 8 11 17 25 20 32 8 34
51 4 77 -18 15 -19 20 -7 33 7 8 17 15 23 16 5 0 4 -5 -3 -12z m398 8 c0 -3
-4 -8 -10 -11 -5 -3 -10 -1 -10 4 0 6 5 11 10 11 6 0 10 -2 10 -4z m360 0 c0
-2 -7 -7 -16 -10 -8 -3 -12 -2 -9 4 6 10 25 14 25 6z m-804 -76 c4 -35 -5 -38
-30 -11 -18 20 -27 50 -19 64 9 16 46 -24 49 -53z m159 50 c3 -6 -5 -10 -19
-10 -14 0 -28 5 -31 10 -3 6 5 10 19 10 14 0 28 -4 31 -10z m-244 -52 c16 -18
29 -36 29 -40 0 -16 -26 -8 -40 12 -8 11 -25 20 -37 20 -27 0 -31 26 -5 33 9
3 18 5 20 6 2 0 16 -14 33 -31z m289 11 c0 -14 -27 -10 -33 5 -4 10 0 12 14 9
10 -3 19 -9 19 -14z m183 -53 c7 -16 -1 -26 -20 -26 -7 0 -13 9 -13 20 0 23
25 27 33 6z m-100 -20 c3 -8 -5 -11 -27 -8 -32 4 -32 3 -28 -32 3 -22 0 -36
-7 -36 -6 0 -11 11 -11 25 0 14 -5 25 -11 25 -13 0 11 25 30 31 27 9 49 7 54
-5z m-257 -36 c19 0 38 -50 24 -64 -18 -18 -11 -26 23 -26 26 -1 29 -2 15 -11
-12 -7 -24 -6 -38 1 -12 6 -30 8 -41 5 -23 -8 -69 19 -69 39 0 8 -6 16 -12 19
-19 7 4 41 31 45 11 2 21 8 21 13 0 6 7 3 16 -5 8 -9 22 -16 30 -16z m103 13
c20 -20 41 -56 41 -72 0 -18 -27 -1 -38 24 -7 15 -21 25 -38 27 -27 3 -27 4
-10 21 10 9 20 17 22 17 3 0 13 -8 23 -17z m177 -50 c-10 -10 -19 5 -10 18 6
11 8 11 12 0 2 -7 1 -15 -2 -18z m-18 -92 c-47 -80 -56 -91 -81 -91 l-28 0 28
48 c15 26 35 60 44 75 14 25 78 70 87 62 2 -2 -20 -44 -50 -94z m792 71 c0
-10 -22 -32 -32 -32 -5 0 -3 9 4 20 13 20 28 27 28 12z m-217 -159 c-7 -2 -19
-2 -25 0 -7 3 -2 5 12 5 14 0 19 -2 13 -5z m485 -395 c-8 -13 -32 -53 -53 -90
-22 -38 -42 -68 -45 -68 -8 0 -82 132 -77 137 2 1 38 6 80 9 50 5 78 11 81 20
3 8 11 14 17 14 8 0 7 -7 -3 -22z m55 -90 c-4 -7 -8 -15 -8 -18 0 -3 -18 -38
-40 -78 -39 -72 -57 -85 -63 -44 -4 26 63 138 73 123 3 -6 11 -11 17 -11 6 0
8 3 5 7 -4 3 -2 12 4 20 14 16 23 17 12 1z"/>
<path d="M3934 5515 c-8 -20 4 -34 35 -37 42 -5 36 33 -7 46 -16 5 -24 3 -28
-9z"/>
<path d="M3510 5694 c0 -3 7 -12 15 -20 13 -14 15 -13 15 5 0 12 -6 21 -15 21
-8 0 -15 -3 -15 -6z"/>
<path d="M3599 5698 c0 -2 -2 -14 -3 -28 -4 -33 12 -42 40 -22 16 13 20 21 13
35 -8 13 -46 25 -50 15z"/>
<path d="M3644 5628 c-4 -6 2 -19 14 -29 12 -9 22 -27 22 -38 0 -15 6 -21 23
-21 13 0 34 -12 46 -26 l23 -26 19 21 c23 24 25 41 4 41 -8 0 -15 5 -15 10 0
6 -4 10 -10 10 -5 0 -18 8 -29 18 -55 51 -83 63 -97 40z"/>
<path d="M3421 5621 c-8 -5 -9 -11 -3 -15 5 -3 12 1 16 9 6 17 6 18 -13 6z"/>
<path d="M3550 5601 c0 -6 5 -13 10 -16 6 -3 10 -15 10 -26 0 -24 38 -40 63
-27 18 9 18 11 -4 34 -12 13 -31 24 -41 24 -10 0 -18 5 -18 10 0 6 -4 10 -10
10 -5 0 -10 -4 -10 -9z"/>
<path d="M3470 5491 c0 -5 4 -12 9 -15 4 -3 11 -19 14 -36 5 -21 12 -30 27
-30 25 0 25 5 0 32 -11 12 -19 29 -18 37 2 8 -5 17 -14 19 -10 2 -18 -1 -18
-7z"/>
<path d="M3680 5493 c1 -18 28 -42 45 -39 30 4 30 26 1 26 -14 0 -26 5 -26 10
0 6 -4 10 -10 10 -5 0 -10 -3 -10 -7z"/>
<path d="M3570 5461 c0 -22 15 -35 30 -26 7 4 7 13 0 26 -14 25 -30 25 -30 0z"/>
<path d="M3385 5443 c4 -16 11 -33 16 -39 12 -15 49 -25 49 -14 0 5 3 15 6 24
4 11 1 16 -10 16 -9 0 -25 9 -36 20 -27 27 -33 25 -25 -7z"/>
<path d="M3645 5420 c-4 -6 5 -10 20 -10 15 0 24 4 20 10 -3 6 -12 10 -20 10
-8 0 -17 -4 -20 -10z"/>
<path d="M3300 5406 c0 -10 9 -16 21 -16 24 0 21 23 -4 28 -10 2 -17 -3 -17
-12z"/>
<path d="M3724 5399 c-3 -5 27 -9 65 -9 39 0 71 4 71 9 0 12 -128 12 -136 0z"/>
<path d="M3671 5386 c-21 -26 37 -112 61 -88 8 8 7 18 -6 36 -9 14 -16 34 -16
46 0 23 -22 27 -39 6z"/>
<path d="M3538 5383 c-16 -4 -16 -6 3 -26 11 -12 22 -32 25 -44 4 -13 12 -23
20 -23 8 0 14 -4 14 -10 0 -5 5 -10 11 -10 5 0 7 5 4 10 -3 6 3 10 14 10 16 0
21 6 21 25 0 20 -5 25 -24 25 -31 0 -43 18 -20 27 34 13 -26 27 -68 16z"/>
<path d="M3887 5383 c-16 -15 -6 -41 18 -45 32 -7 38 3 19 30 -16 23 -26 27
-37 15z"/>
<path d="M3451 5354 c0 -11 3 -14 6 -6 3 7 2 16 -1 19 -3 4 -6 -2 -5 -13z"/>
<path d="M3761 5361 c-12 -8 -12 -12 -2 -25 18 -22 48 -20 54 3 3 11 2 22 -1
25 -8 9 -35 7 -51 -3z"/>
<path d="M3501 5333 c0 -7 -8 -13 -16 -13 -8 0 -15 -9 -15 -20 0 -23 28 -27
36 -6 3 8 4 23 1 33 -3 10 -5 12 -6 6z"/>
<path d="M5600 5033 c-91 -158 -177 -308 -192 -334 l-27 -46 193 -334 192
-334 389 0 389 0 64 110 c35 61 122 210 193 333 l129 223 -60 104 c-60 104
-69 125 -50 125 24 0 8 31 -18 36 -25 5 -43 31 -143 205 l-114 199 -390 0
-390 -1 -165 -286z m1047 77 c62 -107 113 -202 113 -211 0 -9 -6 -22 -14 -28
-11 -9 -25 10 -75 96 -33 60 -85 149 -114 198 l-53 90 -349 0 -349 0 -168
-290 c-93 -159 -172 -296 -177 -303 -4 -8 -19 -12 -34 -10 -25 3 -22 9 124
263 83 143 168 290 190 328 l40 67 377 -2 376 -3 113 -195z m-357 86 c0 -2 -7
-7 -16 -10 -8 -3 -12 -2 -9 4 6 10 25 14 25 6z m15 -16 c-3 -5 -12 -10 -18
-10 -7 0 -6 4 3 10 19 12 23 12 15 0z m-95 -60 c0 -5 -5 -10 -11 -10 -5 0 -7
5 -4 10 3 6 8 10 11 10 2 0 4 -4 4 -10z m-350 -38 c27 -25 11 -49 -17 -25 -11
10 -18 24 -16 31 6 16 10 15 33 -6z m390 4 c0 -2 -7 -7 -16 -10 -8 -3 -12 -2
-9 4 6 10 25 14 25 6z m-80 -30 c0 -2 -9 -6 -20 -9 -11 -3 -18 -1 -14 4 5 9
34 13 34 5z m400 -26 c0 -3 -9 -6 -20 -7 -23 -2 -26 7 -8 25 9 9 14 9 20 -1 4
-6 8 -14 8 -17z m-445 -10 c-3 -5 -12 -10 -18 -10 -7 0 -6 4 3 10 19 12 23 12
15 0z m55 6 c0 -2 -7 -7 -16 -10 -8 -3 -12 -2 -9 4 6 10 25 14 25 6z m-40 -30
c0 -3 -4 -8 -10 -11 -5 -3 -10 -1 -10 4 0 6 5 11 10 11 6 0 10 -2 10 -4z m47
-22 c-3 -3 -12 -4 -19 -1 -8 3 -5 6 6 6 11 1 17 -2 13 -5z m-75 -16 c-7 -7
-16 -7 -28 0 -14 8 -13 10 10 10 18 0 24 -4 18 -10z m-27 -28 c-3 -5 -10 -10
-16 -10 -5 0 -9 5 -9 10 0 6 7 10 16 10 8 0 12 -4 9 -10z m-15 -24 c0 -2 -9
-6 -20 -9 -11 -3 -18 -1 -14 4 5 9 34 13 34 5z m760 -113 c18 -32 44 -77 57
-100 l25 -43 -29 0 c-25 0 -34 10 -75 80 -45 77 -46 82 -30 100 9 11 17 20 18
20 1 0 17 -26 34 -57z m-765 27 c-3 -5 -12 -10 -18 -10 -7 0 -6 4 3 10 19 12
23 12 15 0z m-66 -27 c-18 -23 -31 -33 -44 -33 -5 1 -2 5 8 11 9 6 14 15 11
21 -4 7 -2 8 4 4 7 -4 12 -2 12 3 0 6 5 11 11 11 8 0 7 -6 -2 -17z m-49 -93
c-18 -12 -30 -13 -30 -2 0 4 10 9 22 9 18 2 20 0 8 -7z m35 -20 c-3 -5 -11
-10 -16 -10 -6 0 -7 5 -4 10 3 6 11 10 16 10 6 0 7 -4 4 -10z m795 -34 c0 -2
-8 -10 -17 -17 -16 -13 -17 -12 -4 4 13 16 21 21 21 13z m-26 -58 c-4 -6 -10
-5 -15 3 -7 12 -9 12 -9 0 0 -8 -3 -12 -6 -8 -10 10 6 26 21 21 8 -4 12 -11 9
-16z m-24 -27 c0 -4 -6 -13 -12 -19 -7 -7 -14 -17 -14 -22 -3 -20 -4 -21 -15
-15 -7 5 -4 14 7 26 10 11 12 19 6 19 -7 0 -12 -5 -12 -11 0 -5 -4 -8 -9 -4
-5 3 -12 1 -15 -4 -4 -5 -2 -12 4 -16 14 -9 13 -28 -2 -23 -6 2 -22 -6 -36
-19 -14 -13 -27 -21 -29 -19 -2 2 -28 -9 -58 -24 -57 -29 -75 -21 -35 15 11
10 20 14 20 10 0 -5 10 1 23 13 13 12 27 19 30 15 4 -3 7 1 7 10 0 8 8 18 18
21 9 3 -5 4 -31 2 -54 -4 -69 -13 -47 -26 20 -13 8 -12 -26 0 -24 9 -25 9 -14
-5 7 -8 8 -15 2 -15 -5 0 -12 7 -16 15 -4 11 13 25 67 50 59 29 82 35 130 34
31 -1 57 -5 57 -8z m-336 -149 c-12 -11 -71 -36 -62 -26 14 14 63 41 67 37 3
-2 0 -7 -5 -11z m71 0 c-3 -3 -11 0 -18 7 -9 10 -8 11 6 5 10 -3 15 -9 12 -12z
m-700 -2 c-3 -5 -11 -10 -16 -10 -6 0 -7 5 -4 10 3 6 11 10 16 10 6 0 7 -4 4
-10z m918 -126 c3 -3 3 -12 0 -20 -4 -12 -8 -12 -22 -2 -14 12 -14 11 -3 -4
12 -15 5 -33 -55 -138 l-68 -120 -375 0 c-385 0 -417 3 -388 37 8 10 8 12 -3
8 -8 -3 -21 6 -30 23 -15 27 -15 28 5 27 12 -2 20 -8 18 -15 -2 -8 3 -10 13
-7 9 4 15 1 15 -8 0 -23 48 -26 389 -23 l324 3 68 115 c74 122 93 143 112 124z
m-764 -180 c10 -9 -35 -3 -49 6 -11 8 -7 9 15 4 17 -4 32 -8 34 -10z"/>
<path d="M3843 5303 c9 -2 23 -2 30 0 6 3 -1 5 -18 5 -16 0 -22 -2 -12 -5z"/>
<path d="M3716 5248 c9 -30 10 -31 28 -25 21 8 8 47 -16 47 -15 0 -18 -4 -12
-22z"/>
<path d="M3545 5220 c-8 -13 4 -32 16 -25 12 8 12 35 0 35 -6 0 -13 -4 -16
-10z"/>
<path d="M3623 5196 c-11 -36 -11 -36 35 -21 27 9 29 31 3 45 -27 14 -26 14
-38 -24z"/>
<path d="M3290 5200 c0 -5 5 -10 10 -10 6 0 10 5 10 10 0 6 -4 10 -10 10 -5 0
-10 -4 -10 -10z"/>
<path d="M3110 5178 c0 -4 12 -8 27 -8 14 0 23 3 19 7 -10 10 -46 11 -46 1z"/>
<path d="M3238 5108 c-2 -7 -1 -29 3 -48 6 -34 6 -33 8 13 1 46 -3 59 -11 35z"/>
<path d="M3446 5093 c-11 -11 -6 -23 9 -23 8 0 15 4 15 9 0 13 -16 22 -24 14z"/>
<path d="M3119 5074 c-10 -13 -10 -17 2 -25 21 -13 49 -11 49 4 0 7 -9 18 -19
24 -16 10 -22 9 -32 -3z"/>
<path d="M3310 5080 c0 -5 7 -10 15 -10 8 0 15 5 15 10 0 6 -7 10 -15 10 -8 0
-15 -4 -15 -10z"/>
<path d="M3000 5055 c0 -17 2 -18 24 -9 23 9 20 24 -4 24 -11 0 -20 -7 -20
-15z"/>
<path d="M3180 4960 c0 -11 4 -20 9 -20 11 0 22 26 14 34 -12 12 -23 5 -23
-14z"/>
<path d="M2099 4947 c-41 -31 -96 -75 -135 -107 -23 -19 -70 -57 -104 -85 -33
-27 -82 -69 -108 -92 -26 -24 -50 -43 -54 -43 -5 0 -8 -3 -8 -7 0 -5 102 -7
227 -6 271 2 246 0 237 15 -5 8 -2 9 12 4 37 -14 114 -19 114 -7 0 9 -28 16
-52 12 -14 -2 -8 19 6 25 8 3 12 13 9 23 -6 23 31 51 65 51 21 0 22 2 12 15
-10 12 -8 18 11 35 13 10 27 19 30 20 8 0 20 40 12 40 -2 0 -13 -5 -24 -10
-16 -9 -19 -7 -19 10 0 15 -7 20 -28 20 -15 0 -32 4 -37 9 -6 4 -22 11 -38 15
-20 5 -29 2 -33 -9 -6 -14 -8 -14 -23 -1 -10 9 -23 31 -31 51 -15 39 -18 40
-41 22z m111 -122 c27 -14 41 -35 23 -35 -29 0 -83 23 -83 35 0 19 23 19 60 0z
m89 -33 c-14 -23 -49 -46 -49 -32 0 11 52 61 58 56 2 -2 -2 -13 -9 -24z m-59
-52 c0 -5 -4 -10 -10 -10 -5 0 -10 5 -10 10 0 6 5 10 10 10 6 0 10 -4 10 -10z"/>
<path d="M3140 4920 c-9 -6 -10 -10 -3 -10 6 0 15 5 18 10 8 12 4 12 -15 0z"/>
<path d="M3120 4885 c-7 -9 -10 -18 -7 -22 8 -7 37 15 37 28 0 14 -16 11 -30
-6z"/>
<path d="M2972 4855 c-9 -20 -9 -25 2 -25 15 0 29 37 17 45 -5 2 -13 -7 -19
-20z"/>
<path d="M3046 4851 c-9 -10 -13 -21 -9 -24 3 -4 -1 -7 -10 -7 -9 0 -17 -5
-17 -12 0 -9 -3 -9 -12 0 -15 15 -28 15 -28 1 0 -5 5 -7 10 -4 6 3 10 -1 10
-10 0 -10 -5 -13 -12 -9 -7 4 -8 3 -4 -4 7 -12 92 34 115 62 18 21 -24 28 -43
7z"/>
<path d="M2870 4844 c0 -8 10 -14 26 -14 28 0 25 15 -6 23 -13 3 -20 0 -20 -9z"/>
<path d="M2940 4845 c-1 -5 -2 -17 -1 -25 2 -30 -70 -90 -108 -90 -11 0 -31
-12 -44 -26 -24 -25 -26 -26 -63 -13 -22 8 -42 18 -45 23 -4 5 -17 6 -28 3
-18 -4 -23 0 -28 24 -5 26 -33 43 -33 19 0 -5 5 -10 10 -10 15 0 12 -19 -4
-36 -26 -25 -55 -17 -65 19 -5 17 -10 27 -10 21 -1 -7 -19 -21 -41 -33 -44
-23 -65 -27 -55 -11 3 6 0 10 -8 10 -8 0 -20 7 -27 15 -7 8 -16 12 -21 9 -16
-10 -9 -24 11 -24 16 0 20 -7 20 -35 0 -24 -5 -35 -15 -35 -8 0 -15 -4 -15
-10 0 -5 -13 -10 -30 -10 -16 0 -30 -4 -30 -10 0 -5 23 -10 51 -10 31 0 48 4
44 10 -3 6 1 10 10 10 9 0 13 -4 10 -10 -10 -17 12 -11 31 8 10 9 27 17 38 17
12 0 21 7 21 15 0 9 8 14 19 12 11 -2 15 1 11 7 -3 6 -1 11 4 11 6 0 11 -4 11
-9 0 -9 71 -61 83 -61 20 0 3 30 -23 42 -36 16 -34 32 6 36 22 2 37 -5 58 -27
l28 -29 -28 -16 -29 -15 48 -1 c47 0 79 14 122 53 11 10 33 25 48 33 15 8 25
19 22 24 -3 5 9 22 26 38 25 23 30 34 26 63 -2 19 -5 30 -7 24z m-421 -139
c11 -14 6 -15 -27 -7 -4 1 8 21 12 21 2 0 9 -6 15 -14z"/>
<path d="M2711 4824 c0 -11 3 -14 6 -6 3 7 2 16 -1 19 -3 4 -6 -2 -5 -13z"/>
<path d="M2675 4780 c4 -6 11 -8 16 -5 14 9 11 15 -7 15 -8 0 -12 -5 -9 -10z"/>
<path d="M2710 4770 c0 -6 7 -10 15 -10 8 0 15 2 15 4 0 2 -7 6 -15 10 -8 3
-15 1 -15 -4z"/>
<path d="M2555 4729 c-11 -16 -1 -19 13 -3 7 8 8 14 3 14 -5 0 -13 -5 -16 -11z"/>
<path d="M2271 4691 c-9 -16 -5 -19 36 -25 53 -7 67 -1 30 13 -14 5 -28 15
-32 20 -9 16 -23 13 -34 -8z"/>
<path d="M6834 4283 c-104 -180 -190 -333 -192 -341 -3 -11 91 -181 309 -557
l64 -110 100 -5 c55 -3 230 -5 389 -5 l290 0 184 315 c101 173 188 324 193
336 9 17 -19 70 -176 345 -103 178 -192 330 -197 337 -8 9 -99 12 -393 12
l-382 0 -189 -327z m924 237 c-7 -11 -16 -20 -20 -20 -5 0 -3 9 4 20 7 11 16
20 20 20 5 0 3 -9 -4 -20z m162 -164 l91 -158 -28 -23 c-14 -13 -31 -21 -36
-18 -6 3 -7 1 -3 -5 4 -7 2 -12 -4 -12 -6 0 -8 -4 -5 -10 3 -5 -1 -10 -9 -10
-9 0 -16 -4 -16 -8 0 -5 -15 -16 -32 -26 -18 -9 -24 -14 -13 -11 12 4 4 -9
-23 -35 -23 -23 -42 -46 -42 -51 0 -5 -7 -9 -16 -9 -14 0 -14 -3 -4 -15 7 -8
28 -15 46 -15 19 0 34 -4 34 -9 0 -17 -53 -52 -69 -46 -8 3 -13 3 -9 0 10 -10
-24 -45 -45 -45 -9 0 -20 -7 -24 -16 -3 -8 -12 -13 -19 -10 -17 7 -28 -10 -12
-18 7 -4 3 -4 -10 -2 -15 3 -22 0 -20 -9 2 -8 -1 -14 -6 -13 -5 0 -13 -7 -18
-16 -5 -9 -20 -16 -33 -16 -13 0 -37 -13 -53 -30 -17 -16 -37 -30 -46 -30 -8
0 -18 -4 -21 -10 -3 -6 1 -7 12 -4 17 5 17 5 0 -6 -10 -6 -25 -9 -33 -6 -8 3
-12 2 -9 -3 3 -5 -4 -12 -15 -16 -11 -3 -20 -13 -20 -21 0 -8 -4 -13 -8 -10
-5 3 -20 -6 -34 -19 -14 -13 -28 -21 -31 -19 -3 3 -8 -4 -12 -15 -3 -11 -15
-23 -27 -27 -25 -8 -86 -61 -100 -88 -7 -13 3 -9 39 14 l48 33 -31 -34 c-37
-41 -67 -89 -61 -96 3 -2 14 0 25 6 19 10 32 6 32 -11 0 -4 -10 -8 -21 -8 -29
0 -99 -41 -99 -57 0 -11 -13 -13 -51 -11 -48 3 -53 6 -73 42 -15 28 -18 40 -8
43 6 3 12 12 12 22 0 10 11 27 25 39 14 12 25 26 25 32 0 5 6 7 14 4 8 -3 17
-1 20 4 3 6 16 8 28 4 16 -4 19 -2 13 8 -6 10 -4 12 9 7 9 -4 14 -3 11 2 -3 5
4 12 15 16 11 4 19 9 17 13 -2 4 12 20 31 37 32 27 34 28 23 6 -8 -15 -9 -21
-2 -17 15 10 14 -7 -1 -23 -11 -11 -9 -11 10 -2 23 12 30 31 11 31 -5 0 -7 5
-4 10 4 6 11 7 17 4 6 -4 8 -2 5 3 -8 13 17 36 28 25 5 -4 5 -2 2 4 -3 6 8 24
26 41 58 54 98 104 91 115 -4 7 -2 8 4 4 6 -3 16 3 22 14 6 11 16 17 22 14 7
-4 8 -2 4 5 -10 15 35 83 50 77 8 -3 10 4 4 22 -4 15 -13 26 -20 24 -13 -3
-40 15 -40 27 0 3 36 45 80 91 44 47 80 89 80 93 0 5 6 5 13 1 6 -4 9 -4 5 1
-4 4 7 27 26 50 52 63 51 79 -6 85 -49 6 -77 20 -40 20 12 0 22 5 22 11 0 5
-5 7 -11 3 -18 -11 5 26 45 71 19 22 32 43 30 47 -3 4 -1 8 4 8 5 0 29 25 52
55 24 31 47 52 51 48 4 -4 49 -79 99 -167z m-234 76 c-17 -16 -18 -16 -5 5 7
12 15 20 18 17 3 -2 -3 -12 -13 -22z m-55 -79 c-12 -20 -14 -14 -5 12 4 9 9
14 11 11 3 -2 0 -13 -6 -23z m-51 -82 c-15 -30 -14 -31 46 -31 46 0 54 -2 45
-13 -9 -11 -20 -12 -55 -3 -25 7 -48 15 -51 18 -7 6 12 48 21 48 2 0 0 -9 -6
-19z m60 -78 c0 -10 -60 -78 -60 -69 0 7 52 76 58 76 1 0 2 -3 2 -7z m364 -67
c-16 -13 -31 -23 -33 -21 -2 2 10 15 25 29 16 13 31 23 33 21 2 -2 -10 -15
-25 -29z m-434 -19 c0 -2 -10 -12 -22 -23 l-23 -19 19 23 c18 21 26 27 26 19z
m-60 -70 c0 -2 -10 -12 -21 -23 -22 -19 -22 -19 -8 4 12 19 29 30 29 19z m359
-26 c-13 -11 -28 -21 -34 -22 -5 0 1 -5 15 -9 23 -7 22 -8 -10 -9 l-35 -1 40
35 c21 19 41 32 43 30 3 -3 -6 -13 -19 -24z m61 -61 c0 -5 -6 -12 -12 -16 -7
-4 -10 -4 -6 1 4 4 3 14 -4 22 -8 11 -7 12 6 7 9 -3 16 -10 16 -14z m-494 -58
c-10 -2 -22 0 -28 6 -6 6 0 7 19 4 21 -5 23 -7 9 -10z m444 15 c0 -2 -10 -12
-22 -23 l-23 -19 19 23 c18 21 26 27 26 19z m-389 -34 c-15 -26 -48 -63 -56
-63 -4 0 5 14 19 31 14 17 24 35 20 40 -3 5 2 9 11 9 12 0 13 -4 6 -17z m323
-27 c-10 -8 -21 -12 -23 -10 -3 2 4 11 15 18 10 8 21 12 23 10 3 -2 -4 -11
-15 -18z m-428 -105 c-10 -11 -15 -24 -11 -30 4 -7 0 -8 -10 -5 -13 5 -13 9
-3 23 26 32 33 39 37 35 2 -2 -4 -13 -13 -23z m304 21 c0 -5 -12 -14 -27 -21
l-28 -12 25 21 c29 22 30 23 30 12z m-125 -42 c-3 -5 -12 -10 -18 -10 -7 0 -6
4 3 10 19 12 23 12 15 0z m-215 -23 c0 -2 -10 -12 -22 -23 l-23 -19 19 23 c18
21 26 27 26 19z m-62 -76 c-13 -17 -27 -30 -32 -30 -8 -1 -2 8 29 46 6 7 14
12 18 13 5 0 -2 -13 -15 -29z m162 -15 c0 -3 -4 -8 -10 -11 -5 -3 -10 -1 -10
4 0 6 5 11 10 11 6 0 10 -2 10 -4z m-37 -36 c-3 -12 -14 -20 -27 -20 -20 0
-20 1 4 20 14 11 26 20 27 20 0 0 -1 -9 -4 -20z m-61 -32 c-18 -18 -14 -28 11
-28 18 0 19 -2 7 -10 -15 -10 -80 -10 -80 0 0 5 61 48 70 49 2 1 -1 -4 -8 -11z
m-332 -28 c0 -5 -12 -10 -27 -9 l-28 1 25 8 c14 4 26 8 28 9 1 1 2 -3 2 -9z
m320 -62 c0 -4 -7 -8 -15 -8 -9 0 -18 -7 -21 -15 -5 -13 -8 -13 -21 0 -8 8
-12 19 -8 24 7 12 65 11 65 -1z m-45 -68 c-3 -5 -14 -10 -23 -9 -14 0 -13 2 3
9 27 11 27 11 20 0z"/>
<path d="M7805 3920 c-3 -5 1 -10 10 -10 9 0 13 5 10 10 -3 6 -8 10 -10 10 -2
0 -7 -4 -10 -10z"/>
<path d="M5371 4435 c0 -5 3 -16 8 -23 7 -11 9 -10 14 3 4 9 3 14 -2 10 -5 -3
-12 1 -14 7 -3 7 -6 9 -6 3z"/>
<path d="M5385 4380 c-3 -5 -13 -7 -23 -4 -14 5 -14 4 -2 -4 8 -6 18 -8 22 -6
4 3 8 0 8 -6 0 -15 -46 -31 -67 -23 -11 4 -14 3 -9 -5 4 -7 1 -12 -7 -12 -17
0 -17 -7 -16 -140 2 -138 2 -139 11 -134 4 3 8 -1 8 -8 0 -9 3 -9 10 2 9 13
11 13 20 0 6 -10 10 -11 10 -2 0 19 25 14 46 -9 16 -17 16 -22 4 -30 -13 -9
-13 -10 0 -6 8 2 15 10 15 18 0 8 7 17 15 21 10 5 6 7 -10 5 -23 -2 -25 1 -25
45 0 25 -2 45 -6 43 -7 -5 -4 120 4 150 3 11 6 20 7 20 1 0 3 11 6 25 3 17 1
21 -5 11 -5 -8 -11 -9 -15 -3 -3 6 -2 13 3 17 5 3 9 14 8 25 -1 23 -3 24 -12
10z"/>
<path d="M4788 4363 c-9 -3 -20 -13 -23 -24 -17 -53 42 -92 76 -50 31 38 -3
85 -53 74z"/>
<path d="M5320 4367 c0 -2 6 -10 14 -16 11 -9 16 -9 22 1 4 7 4 10 -1 6 -4 -4
-14 -3 -22 3 -7 6 -13 9 -13 6z"/>
<path d="M5425 4340 c2 -27 7 -35 23 -36 14 -1 19 3 14 14 -4 11 -7 12 -10 4
-2 -7 -8 -12 -13 -12 -6 0 -5 9 2 21 6 13 7 19 1 15 -6 -3 -13 2 -15 11 -3 10
-4 2 -2 -17z"/>
<path d="M558 4290 c-27 -29 -38 -50 -39 -73 -4 -120 37 -177 126 -177 46 0
95 42 95 81 0 32 -19 39 -40 13 -21 -24 -63 -13 -79 20 -11 23 -11 37 -2 67
13 42 20 46 51 27 15 -10 25 -10 38 -2 48 31 7 84 -65 84 -41 0 -50 -4 -85
-40z"/>
<path d="M1219 4301 c-31 -32 -39 -78 -14 -87 11 -5 15 -22 15 -64 0 -32 5
-71 10 -85 9 -23 14 -26 38 -20 46 11 55 27 43 71 -16 59 -14 94 10 112 20 17
19 52 -2 52 -5 0 -9 11 -9 25 0 37 -52 35 -91 -4z"/>
<path d="M1948 4319 c-10 -5 -18 -21 -18 -34 0 -15 -7 -26 -20 -30 -23 -7 -28
-45 -6 -45 12 0 14 -16 13 -77 l-2 -78 50 0 c44 0 50 2 47 20 -16 116 -15 132
7 138 24 6 28 35 6 43 -18 7 -20 25 -2 22 7 -2 12 7 12 22 0 21 -5 25 -35 27
-19 2 -43 -2 -52 -8z"/>
<path d="M2689 4291 c-39 -39 -46 -61 -40 -136 6 -69 56 -115 125 -115 47 0
96 41 96 81 0 32 -19 39 -40 13 -21 -24 -63 -13 -79 20 -11 23 -11 37 -2 67 7
22 18 39 26 39 8 0 15 -4 15 -10 0 -14 43 -13 58 2 35 35 -7 78 -76 78 -38 0
-50 -6 -83 -39z"/>
<path d="M3133 4318 c-15 -19 -24 -188 -13 -230 10 -34 13 -37 61 -43 63 -9
97 12 117 71 25 73 -4 144 -59 144 -24 0 -27 3 -25 33 1 30 -1 32 -35 35 -21
2 -40 -2 -46 -10z m87 -153 c0 -19 -4 -35 -10 -35 -5 0 -10 16 -10 35 0 19 5
35 10 35 6 0 10 -16 10 -35z"/>
<path d="M3935 4321 l-50 -6 -7 -50 c-10 -78 -9 -174 2 -196 8 -15 22 -19 61
-19 l50 0 -6 43 -7 43 49 27 c70 37 92 92 55 137 -20 24 -68 31 -147 21z m65
-68 c0 -14 -19 -38 -25 -32 -8 8 5 39 16 39 5 0 9 -3 9 -7z"/>
<path d="M4137 4308 c-19 -30 -28 -128 -19 -198 l7 -55 82 -2 c75 -2 84 -1 94
19 15 27 15 138 0 166 -14 26 -45 36 -70 22 -19 -10 -20 -8 -18 27 2 36 0 38
-30 41 -24 2 -35 -2 -46 -20z m85 -189 l-10 -44 0 65 c-1 51 2 60 10 44 6 -14
6 -36 0 -65z"/>
<path d="M5147 4279 c7 -7 15 -10 18 -7 3 3 -2 9 -12 12 -14 6 -15 5 -6 -5z"/>
<path d="M5270 4269 c0 -5 -6 -7 -12 -3 -10 5 -10 4 -1 -6 6 -7 9 -20 6 -29
-4 -9 -3 -13 1 -10 9 8 18 59 11 59 -3 0 -5 -5 -5 -11z"/>
<path d="M824 4260 c-57 -23 -82 -107 -49 -170 18 -35 43 -50 85 -50 51 0 113
74 79 95 -5 4 -18 0 -28 -9 -18 -17 -61 -22 -61 -8 0 4 20 18 45 30 37 18 45
26 45 49 0 34 -8 46 -37 62 -25 13 -49 13 -79 1z m36 -60 c0 -5 -5 -10 -11
-10 -5 0 -7 5 -4 10 3 6 8 10 11 10 2 0 4 -4 4 -10z"/>
<path d="M1087 4255 c-16 -8 -29 -10 -32 -4 -11 17 -64 10 -75 -10 -11 -21
-14 -132 -4 -168 6 -20 12 -22 90 -22 98 0 104 5 104 93 0 97 -31 138 -83 111z
m-16 -165 c-8 -21 -10 -16 -10 31 -1 31 2 59 7 63 11 12 14 -67 3 -94z"/>
<path d="M1447 4263 c-4 -3 -26 -7 -50 -7 l-42 -1 -3 -85 c-3 -100 6 -118 62
-127 l38 -6 -7 81 -7 80 34 -1 c27 -2 34 2 36 21 6 38 -37 69 -61 45z"/>
<path d="M1583 4256 c-45 -20 -57 -49 -54 -129 2 -43 51 -87 96 -87 43 0 85
36 85 75 0 29 -7 31 -34 10 -23 -17 -56 -20 -56 -5 0 6 12 15 27 21 61 23 78
59 46 98 -23 27 -70 35 -110 17z m47 -50 c0 -3 -4 -8 -10 -11 -5 -3 -10 -1
-10 4 0 6 5 11 10 11 6 0 10 -2 10 -4z"/>
<path d="M2145 4261 c-56 -23 -82 -109 -51 -169 19 -36 43 -52 81 -52 114 0
146 172 40 216 -39 16 -42 16 -70 5z m45 -111 c0 -22 -4 -40 -10 -40 -5 0 -10
18 -10 40 0 22 5 40 10 40 6 0 10 -18 10 -40z"/>
<path d="M2407 4264 c-4 -4 -28 -7 -54 -8 l-48 -1 -3 -85 c-3 -100 6 -118 62
-127 l38 -6 -7 81 -7 80 34 -1 c27 -2 34 2 36 21 5 36 -30 67 -51 46z"/>
<path d="M3394 4260 c-57 -23 -82 -107 -49 -170 18 -35 43 -50 85 -50 51 0
113 74 79 95 -5 4 -18 0 -28 -9 -18 -17 -61 -22 -61 -8 0 4 20 18 45 30 37 18
45 26 45 49 0 34 -8 46 -37 62 -25 13 -49 13 -79 1z m36 -60 c0 -5 -5 -10 -11
-10 -5 0 -7 5 -4 10 3 6 8 10 11 10 2 0 4 -4 4 -10z"/>
<path d="M3637 4263 c-4 -3 -26 -7 -50 -7 l-42 -1 -3 -85 c-3 -100 6 -118 62
-127 l38 -6 -7 81 -7 80 34 -1 c27 -2 34 2 36 21 6 38 -37 69 -61 45z"/>
<path d="M4454 4259 c-2 -3 -4 -29 -5 -57 -1 -28 -6 -49 -11 -46 -5 4 -8 27
-6 53 l3 46 -43 3 c-32 2 -44 -1 -48 -13 -9 -23 14 -121 32 -135 21 -18 17
-39 -10 -46 -22 -5 -36 -29 -36 -61 0 -18 64 -17 98 1 65 34 119 132 114 207
-3 47 -3 47 -43 51 -22 2 -42 1 -45 -3z"/>
<path d="M4596 4259 c2 -4 -3 -12 -11 -19 -31 -26 -13 -80 36 -106 23 -11 28
-19 20 -27 -8 -8 -18 -4 -36 13 -18 16 -28 21 -36 13 -14 -14 -1 -61 22 -77
10 -7 17 -15 14 -18 -8 -7 89 7 103 16 21 13 32 53 22 81 -5 13 -23 31 -40 40
-16 8 -30 20 -30 25 0 6 8 5 19 -2 15 -9 23 -9 35 1 24 20 19 39 -14 56 -28
15 -113 18 -104 4z"/>
<path d="M4948 4256 c3 -5 -2 -7 -11 -3 -9 3 -16 3 -15 -1 1 -4 -4 -18 -11
-31 -16 -29 -31 -131 -19 -131 4 0 8 -5 8 -11 0 -5 -5 -7 -12 -3 -7 5 -8 3 -4
-5 5 -7 10 -10 13 -7 3 3 15 -1 27 -9 11 -8 39 -15 62 -15 53 0 80 24 76 68
-4 37 -5 37 -37 16 -31 -20 -42 -13 -43 28 -1 43 7 53 25 31 8 -10 12 -12 8
-6 -4 9 -1 11 10 6 21 -7 35 12 35 49 0 23 -5 28 -32 32 -48 6 -87 2 -80 -8z"/>
<path d="M2894 4245 c-9 -23 14 -121 32 -135 21 -18 17 -39 -10 -46 -22 -5
-36 -29 -36 -61 0 -22 74 -15 111 10 62 42 99 118 99 205 l0 42 -45 0 -45 0 0
-56 c0 -37 -4 -53 -11 -49 -6 4 -9 28 -7 54 l3 46 -43 3 c-32 2 -44 -1 -48
-13z"/>
<path d="M4771 4247 c-14 -17 -17 -175 -3 -189 5 -5 29 -8 53 -6 l44 3 -2 40
c-1 22 -5 68 -9 103 -7 62 -7 62 -39 62 -18 0 -38 -6 -44 -13z"/>
<path d="M5100 4245 c-7 -8 -17 -12 -24 -8 -6 4 -5 -1 2 -10 8 -9 10 -22 6
-28 -4 -8 -3 -9 4 -5 7 4 12 2 12 -4 0 -6 5 -8 10 -5 6 3 10 2 10 -4 0 -5 -4
-12 -9 -16 -6 -3 -16 -18 -23 -33 -13 -24 -12 -31 3 -56 10 -16 15 -36 12 -45
-4 -14 -3 -14 6 -1 14 20 49 21 85 3 15 -8 25 -10 22 -4 -4 6 1 11 11 11 21 1
55 24 53 37 -1 4 -6 13 -11 20 -7 7 -6 13 0 18 7 4 7 12 1 23 -17 32 -30 84
-23 95 3 5 1 7 -4 4 -6 -4 -16 0 -23 8 -8 9 -30 15 -60 15 -30 0 -52 -6 -60
-15z m70 -44 c0 -5 -7 -11 -15 -15 -15 -5 -20 5 -8 17 9 10 23 9 23 -2z m-3
-83 c-3 -8 -6 -5 -6 6 -1 11 2 17 5 13 3 -3 4 -12 1 -19z"/>
<path d="M5395 4250 c-8 -13 5 -13 25 0 13 8 13 10 -2 10 -9 0 -20 -4 -23 -10z"/>
<path d="M5419 4232 c-14 -6 -14 -9 -4 -19 10 -9 14 -8 18 8 3 10 4 19 4 18
-1 0 -9 -3 -18 -7z"/>
<path d="M3727 4194 c-4 -4 -7 -18 -7 -31 0 -22 4 -23 66 -23 l65 0 -3 28 c-3
25 -6 27 -58 30 -31 2 -59 0 -63 -4z"/>
<path d="M5568 4113 c29 -43 71 -130 66 -137 -2 -3 -1 -4 3 -1 3 3 12 -3 20
-13 23 -28 11 -2 -42 91 -27 48 -54 87 -58 87 -5 0 0 -12 11 -27z"/>
<path d="M5532 4123 c24 -49 32 -63 39 -63 5 0 -1 16 -12 35 -12 19 -23 35
-26 35 -2 0 -3 -3 -1 -7z"/>
<path d="M5420 4080 c-11 -7 -11 -10 -2 -10 8 0 10 -5 6 -12 -4 -7 -3 -9 1 -5
7 6 17 37 12 37 -1 0 -9 -5 -17 -10z"/>
<path d="M5250 4030 c-9 -6 -10 -10 -3 -10 6 0 15 5 18 10 8 12 4 12 -15 0z"/>
<path d="M5366 4027 c3 -10 9 -15 12 -12 3 3 0 11 -7 18 -10 9 -11 8 -5 -6z"/>
<path d="M5279 4028 c-5 -18 -6 -38 -1 -34 7 8 12 36 6 36 -2 0 -4 -1 -5 -2z"/>
<path d="M5605 3975 c3 -27 8 -51 11 -54 3 -3 3 16 0 43 -3 27 -9 52 -12 55
-3 3 -3 -17 1 -44z"/>
<path d="M5110 4006 c0 -2 7 -7 16 -10 8 -3 12 -2 9 4 -6 10 -25 14 -25 6z"/>
<path d="M5334 3994 c-18 -15 -18 -15 2 -5 15 7 25 7 34 -2 12 -10 12 -9 1 6
-16 21 -13 20 -37 1z"/>
<path d="M5635 3940 c-3 -5 -1 -10 4 -10 6 0 11 5 11 10 0 6 -2 10 -4 10 -3 0
-8 -4 -11 -10z"/>
<path d="M5634 3883 c-1 -13 -1 -23 0 -21 1 2 7 10 14 19 10 13 10 18 0 22 -8
3 -14 -5 -14 -20z"/>
<path d="M5604 3889 c-3 -6 -1 -16 5 -22 8 -8 11 -5 11 11 0 24 -5 28 -16 11z"/>
<path d="M5756 3878 c-31 -50 -366 -637 -368 -646 -2 -6 83 -159 187 -341
l190 -331 390 0 391 0 192 334 192 334 -193 334 -194 333 -386 3 -386 2 -15
-22z m954 -303 c95 -165 179 -310 186 -322 14 -22 13 -23 -13 -23 -26 0 -40
20 -202 301 -159 277 -172 303 -162 326 7 14 13 24 15 22 2 -2 81 -139 176
-304z m-268 -341 c-2 -11 -8 -20 -12 -22 -5 -2 -7 -9 -4 -17 3 -7 1 -16 -4
-19 -6 -3 -8 -14 -5 -25 3 -14 -2 -20 -22 -25 -26 -7 -27 -8 -10 -26 14 -16
16 -25 7 -47 -5 -16 -14 -46 -20 -68 -23 -84 -44 -161 -52 -185 -5 -14 -11
-38 -15 -53 -5 -27 -8 -28 -48 -23 -60 8 -307 16 -307 10 0 -3 12 -16 28 -30
l27 -26 -32 22 c-18 12 -33 26 -33 31 0 5 -20 9 -44 9 -25 0 -47 4 -51 9 -11
19 -17 190 -10 327 6 123 9 142 23 140 10 -2 23 -24 34 -57 16 -50 18 -29 2
34 l-7 28 132 -2 c109 -2 134 -5 150 -20 10 -10 21 -15 24 -12 3 3 8 -12 12
-33 3 -22 8 -55 11 -74 5 -30 7 -32 16 -16 8 14 7 25 -1 38 -7 11 -9 32 -6 48
l6 28 43 -24 c40 -23 44 -23 57 -7 12 15 12 16 -3 11 -10 -4 -19 -1 -23 10 -5
14 -7 14 -15 2 -9 -15 -11 -13 -14 12 0 6 -8 13 -16 15 -12 4 -12 3 -1 -5 9
-7 10 -12 2 -16 -6 -4 -11 -4 -12 1 0 4 -2 17 -4 29 -4 18 1 21 31 21 26 0 33
-4 30 -14 -3 -8 -2 -12 2 -10 60 31 84 38 98 27 11 -10 14 -9 14 3 0 8 -6 18
-12 21 -7 2 -2 3 12 2 18 -3 24 -8 22 -22z m-662 -25 c0 -6 7 -9 15 -5 9 3 15
0 15 -9 0 -9 -6 -12 -15 -9 -20 8 -19 -13 2 -24 14 -9 15 -23 9 -133 -5 -68
-11 -154 -15 -191 l-6 -68 -77 133 c-42 72 -72 134 -66 136 6 2 -1 13 -15 25
-14 11 -41 51 -62 89 l-37 67 126 0 c85 0 126 -4 126 -11z m775 -39 c3 -5 1
-10 -4 -10 -6 0 -11 5 -11 10 0 6 2 10 4 10 3 0 8 -4 11 -10z m-98 -32 c-3 -8
-6 -5 -6 6 -1 11 2 17 5 13 3 -3 4 -12 1 -19z m158 2 c-3 -5 -12 -10 -18 -10
-7 0 -6 4 3 10 19 12 23 12 15 0z m45 0 c0 -5 -8 -10 -17 -10 -15 0 -16 2 -3
10 19 12 20 12 20 0z m4 -29 c4 -5 -5 -8 -19 -6 -35 3 -44 15 -12 15 14 0 28
-4 31 -9z m-54 -16 c24 -15 24 -15 -15 -11 -22 3 -41 5 -43 5 -2 1 0 6 3 11 8
14 25 12 55 -5z m95 5 c3 -5 1 -10 -4 -10 -6 0 -11 5 -11 10 0 6 2 10 4 10 3
0 8 -4 11 -10z m-245 -24 c0 -3 -4 -8 -10 -11 -5 -3 -10 -1 -10 4 0 6 5 11 10
11 6 0 10 -2 10 -4z m83 -30 c19 6 20 5 8 -10 -15 -18 -1 -22 17 -4 9 9 15 9
24 0 7 -7 17 -12 23 -12 5 0 1 7 -9 15 -19 14 -19 15 7 15 34 0 34 -13 1 -39
-32 -25 -47 -26 -64 -6 -7 9 -18 14 -24 12 -6 -3 -12 9 -12 27 -1 17 1 23 3
13 3 -13 10 -16 26 -11z m57 20 c0 -2 -7 -6 -15 -10 -8 -3 -15 -1 -15 4 0 6 7
10 15 10 8 0 15 -2 15 -4z m57 -2 c-3 -3 -12 -4 -19 -1 -8 3 -5 6 6 6 11 1 17
-2 13 -5z m-227 -8 c0 -3 -4 -8 -10 -11 -5 -3 -10 -1 -10 4 0 6 5 11 10 11 6
0 10 -2 10 -4z m243 -27 c-4 -15 -9 -17 -17 -9 -8 8 -7 13 4 20 8 5 16 10 17
10 0 0 -1 -9 -4 -21z m-245 -77 c2 -33 0 -42 -12 -42 -12 0 -16 11 -16 46 0
59 24 55 28 -4z m112 38 c11 -7 4 -10 -25 -9 -31 0 -36 2 -20 9 26 11 28 11
45 0z m110 0 c0 -5 -12 -10 -27 -9 l-28 1 25 8 c14 4 26 8 28 9 1 1 2 -3 2 -9z
m-98 -32 c-8 -8 -17 -8 -34 0 -22 10 -21 11 12 11 26 1 31 -2 22 -11z m63 -13
c-33 -27 -50 -31 -61 -14 -9 15 16 30 39 23 9 -3 17 -1 17 5 0 6 8 11 18 11
13 0 10 -6 -13 -25z m-83 -21 c16 -10 13 -11 -22 -11 -36 0 -40 2 -40 24 0 22
2 23 21 11 12 -7 30 -18 41 -24z m-152 -39 c0 -8 -2 -15 -4 -15 -2 0 -6 7 -10
15 -3 8 -1 15 4 15 6 0 10 -7 10 -15z m50 1 c0 -7 -7 -19 -15 -26 -13 -11 -15
-8 -15 14 0 16 5 26 15 26 8 0 15 -6 15 -14z m105 4 c-3 -5 -11 -10 -17 -10
-6 0 -20 -7 -30 -17 -16 -15 -18 -15 -18 0 0 9 8 21 18 26 22 13 55 14 47 1z
m55 -4 c0 -2 -12 -25 -26 -50 l-26 -47 -24 22 c-31 29 -30 33 9 58 28 18 67
28 67 17z m-225 -80 c-24 -18 -24 -18 -18 17 5 26 7 27 21 13 15 -14 14 -17
-3 -30z m53 4 c0 -16 -3 -30 -8 -30 -7 0 -8 43 -1 58 4 9 8 -3 9 -28z m42 -20
c0 -32 -4 -40 -19 -40 -16 0 -17 4 -8 40 6 22 15 40 19 40 4 0 8 -18 8 -40z
m63 -26 c-3 -8 -16 -14 -29 -14 -21 0 -24 4 -24 40 l0 40 29 -26 c17 -14 27
-32 24 -40z m-143 -10 c0 -16 -4 -23 -11 -18 -6 3 -15 0 -20 -7 -4 -7 -12 -10
-16 -5 -4 5 -2 11 5 13 6 3 12 11 12 18 0 11 8 18 28 24 1 1 2 -11 2 -25z
m120 -24 c0 -5 -5 -10 -11 -10 -5 0 -7 5 -4 10 3 6 8 10 11 10 2 0 4 -4 4 -10z
m-37 -7 c-7 -2 -21 -2 -30 0 -10 3 -4 5 12 5 17 0 24 -2 18 -5z m-674 -80 l11
-23 355 0 c307 0 356 2 361 15 4 8 13 15 21 15 8 0 12 4 9 9 -6 9 29 23 37 15
2 -3 -7 -27 -22 -54 l-26 -50 -377 0 -377 0 -25 42 c-16 28 -22 46 -16 53 6 7
6 15 2 20 -4 4 3 2 15 -6 12 -7 26 -23 32 -36z"/>
<path d="M6015 3180 c-19 -8 -19 -9 3 -9 12 -1 22 4 22 9 0 6 -1 10 -2 9 -2 0
-12 -4 -23 -9z"/>
<path d="M6340 3140 c-11 -7 -11 -11 2 -23 13 -13 16 -13 26 3 13 21 -5 34
-28 20z"/>
<path d="M5666 3032 c12 -11 64 -33 64 -27 0 5 -56 35 -67 35 -4 0 -3 -4 3 -8z"/>
<path d="M1207 3874 c-4 -4 -7 -27 -7 -50 l0 -43 -35 6 c-29 5 -39 1 -65 -25
-37 -37 -40 -86 -9 -126 19 -24 26 -26 80 -24 l59 3 3 129 c2 122 -4 152 -26
130z m-19 -171 c3 -34 -1 -44 -17 -53 -33 -17 -61 3 -61 43 0 40 17 59 50 55
22 -3 25 -9 28 -45z"/>
<path d="M1503 3873 l-33 -4 0 -118 c0 -148 3 -153 90 -149 52 2 65 6 68 21 3
15 -5 17 -57 17 l-61 0 0 39 0 38 61 7 c49 6 60 10 57 24 -3 14 -14 16 -61 14
l-57 -3 0 35 c0 30 4 37 25 42 14 4 43 4 65 0 45 -7 63 9 35 31 -18 12 -62 14
-132 6z"/>
<path d="M537 3863 c-4 -3 -7 -64 -7 -135 0 -121 1 -128 20 -128 18 0 20 7 20
65 l0 65 55 0 c48 0 55 2 55 20 0 18 -7 20 -55 20 -54 0 -55 0 -55 30 l0 30
65 0 c49 0 65 3 65 14 0 8 -7 17 -16 20 -21 8 -139 8 -147 -1z"/>
<path d="M2710 3851 c-5 -11 -10 -32 -10 -47 0 -16 -13 -41 -35 -65 -40 -45
-43 -66 -14 -103 22 -29 73 -35 111 -15 17 9 23 8 30 -5 5 -9 16 -16 23 -16
17 0 21 35 6 45 -6 3 -7 28 -4 55 5 42 3 50 -11 50 -9 0 -16 -7 -16 -15 0 -22
-17 -18 -30 5 -9 16 -7 26 9 47 24 29 27 53 9 71 -18 18 -56 14 -68 -7z m37
-33 c-3 -8 -6 -5 -6 6 -1 11 2 17 5 13 3 -3 4 -12 1 -19z m-4 -113 c22 -45 22
-44 -9 -55 -30 -12 -64 3 -64 27 0 16 37 63 50 63 3 0 14 -16 23 -35z"/>
<path d="M2964 3857 c-2 -7 4 -38 15 -69 10 -30 25 -82 31 -114 7 -33 17 -62
23 -66 16 -10 37 2 37 21 0 9 11 42 24 75 l24 58 6 -33 c22 -111 28 -129 46
-129 13 0 29 27 60 102 45 108 55 163 31 163 -8 0 -24 -33 -41 -81 -43 -126
-45 -128 -59 -38 -16 103 -20 114 -36 114 -18 0 -37 -38 -60 -115 l-17 -60
-19 72 c-10 40 -23 81 -29 93 -12 23 -28 26 -36 7z"/>
<path d="M4150 3842 c-72 -40 -60 -104 22 -115 81 -11 90 -62 15 -81 -32 -8
-40 -6 -62 14 -20 19 -28 21 -37 12 -32 -32 53 -79 113 -62 43 13 79 48 79 77
0 33 -43 73 -78 73 -15 0 -36 6 -46 13 -16 12 -16 14 3 31 16 14 29 17 60 12
25 -4 42 -2 47 5 20 33 -66 48 -116 21z"/>
<path d="M3522 3837 c-7 -8 -10 -22 -6 -31 5 -12 0 -16 -20 -16 -19 0 -26 -5
-26 -20 0 -15 7 -20 25 -20 23 0 24 -3 27 -72 2 -57 6 -73 18 -73 12 0 16 16
18 72 3 65 5 72 25 75 29 4 28 32 0 36 -13 2 -23 9 -23 16 0 7 -6 20 -13 30
-11 15 -15 16 -25 3z"/>
<path d="M4692 3837 c-7 -8 -10 -22 -6 -31 5 -12 0 -16 -20 -16 -19 0 -26 -5
-26 -20 0 -15 7 -20 25 -20 24 0 25 -2 25 -69 0 -69 11 -94 33 -72 6 6 10 40
9 75 -1 60 1 65 21 68 29 4 28 32 0 36 -13 2 -23 9 -23 16 0 7 -6 20 -13 30
-11 15 -15 16 -25 3z"/>
<path d="M5603 3838 c3 -9 -1 -22 -8 -28 -17 -14 -46 -70 -37 -70 4 0 19 20
33 44 19 31 24 48 17 57 -8 11 -9 10 -5 -3z"/>
<path d="M5319 3813 c-1 -5 -1 -11 0 -15 1 -11 -17 -10 -42 3 -20 9 -21 9 -4
-4 14 -12 15 -16 4 -20 -8 -3 -21 0 -28 6 -10 10 -11 9 -2 -3 6 -9 7 -23 2
-35 -13 -33 -11 -35 43 -59 50 -22 51 -24 30 -35 -18 -10 -29 -9 -52 2 -25 13
-29 13 -35 0 -7 -20 12 -43 37 -43 13 0 18 -5 15 -13 -3 -9 4 -13 23 -13 16 0
27 3 24 7 -2 5 -12 6 -22 3 -14 -5 -15 -4 -2 5 8 6 22 11 30 11 8 0 23 14 32
30 9 17 13 30 8 30 -6 0 -10 6 -10 13 0 15 -29 42 -47 43 -35 3 -37 5 -20 18
24 18 74 1 110 -38 15 -16 27 -26 27 -22 0 4 -12 21 -27 36 -31 34 -39 61 -15
54 11 -4 9 -1 -3 6 -11 7 -26 20 -32 28 -8 10 -13 11 -13 4 0 -7 -7 -12 -16
-12 -8 0 -12 5 -9 10 3 6 4 10 1 10 -3 0 -7 -3 -7 -7z"/>
<path d="M5394 3809 c-8 -14 13 -18 30 -6 16 12 16 13 -4 13 -12 0 -23 -4 -26
-7z"/>
<path d="M5526 3804 c-9 -24 -2 -26 12 -4 7 11 8 20 3 20 -5 0 -12 -7 -15 -16z"/>
<path d="M4555 3794 c-85 -31 -98 -83 -24 -105 40 -12 51 -32 24 -43 -8 -3
-27 -1 -42 5 -32 12 -53 -2 -34 -25 36 -43 121 -23 132 30 6 33 -4 45 -61 70
l-25 11 24 12 c19 10 25 11 31 1 10 -16 40 -6 40 13 0 7 -6 20 -12 29 -12 14
-17 14 -53 2z"/>
<path d="M1679 3788 c-2 -7 -4 -49 -4 -93 0 -65 3 -80 16 -83 13 -2 17 8 21
48 5 52 35 99 56 87 5 -4 10 -34 10 -68 1 -63 11 -87 31 -74 14 8 4 153 -12
173 -13 17 -52 15 -68 -4 -12 -14 -14 -14 -21 5 -8 23 -24 28 -29 9z"/>
<path d="M4878 3792 c-29 -3 -77 -52 -79 -80 -4 -56 16 -97 49 -101 69 -7 89
-4 109 16 32 32 14 50 -30 30 -41 -20 -57 -21 -57 -6 0 5 -4 8 -9 4 -5 -3 -12
-1 -15 3 -3 5 6 14 20 21 20 9 24 9 18 -1 -4 -7 5 -1 20 14 16 15 31 26 35 24
4 -3 8 6 9 18 2 31 -36 63 -70 58z m32 -47 c0 -8 -62 -37 -67 -31 -11 11 20
36 43 36 13 0 24 -2 24 -5z"/>
<path d="M4988 3790 c-1 -5 -2 -48 0 -95 3 -75 6 -85 22 -85 15 0 18 8 18 45
0 51 27 104 44 87 5 -5 8 -37 6 -70 -2 -49 0 -62 14 -71 14 -9 20 -7 28 9 6
11 15 18 19 16 4 -3 8 1 8 9 0 11 -4 12 -14 4 -10 -9 -13 -5 -14 22 0 19 -2
42 -4 52 -4 23 34 45 46 26 5 -8 9 -25 8 -39 -2 -31 11 -100 20 -101 3 0 13
-2 21 -4 11 -2 15 6 15 30 0 18 -3 31 -6 29 -12 -7 -19 99 -7 113 9 11 7 12
-7 7 -11 -5 -16 -3 -12 2 8 14 -53 17 -68 4 -9 -8 -15 -8 -20 0 -8 14 -48 13
-63 -2 -9 -9 -12 -8 -12 5 0 18 -36 24 -42 7z"/>
<path d="M5546 3783 c-6 -14 -5 -15 5 -6 7 7 10 15 7 18 -3 3 -9 -2 -12 -12z"/>
<path d="M749 3761 c-55 -55 -30 -154 39 -154 39 0 58 15 72 59 14 41 7 77
-20 104 -28 28 -57 25 -91 -9z m69 -23 c25 -25 5 -98 -27 -98 -15 0 -31 25
-31 48 0 50 31 77 58 50z"/>
<path d="M937 3779 c-23 -13 -47 -62 -47 -94 0 -30 49 -85 75 -85 9 0 30 13
46 29 69 69 6 197 -74 150z m61 -76 c2 -33 -1 -44 -17 -52 -15 -8 -23 -7 -35
5 -20 20 -20 44 0 72 25 36 48 24 52 -25z"/>
<path d="M1875 3767 c-18 -15 -28 -36 -32 -65 -8 -59 22 -92 83 -92 48 0 97
31 78 50 -8 8 -19 6 -41 -7 -27 -15 -35 -15 -59 -4 l-29 13 58 29 c46 24 57
34 57 54 0 47 -71 61 -115 22z m75 -22 c0 -8 -62 -37 -67 -31 -11 11 20 36 43
36 13 0 24 -2 24 -5z"/>
<path d="M2034 3777 c-3 -8 -4 -49 -2 -93 2 -62 6 -79 18 -79 11 0 16 16 20
63 3 40 10 66 20 72 24 16 40 11 40 -11 0 -33 25 -16 28 19 4 39 -17 51 -59
35 -17 -7 -31 -7 -35 -2 -8 13 -24 11 -30 -4z"/>
<path d="M2233 3776 c-38 -17 -53 -43 -53 -90 0 -50 31 -80 76 -73 36 6 41 -1
24 -34 -8 -14 -21 -19 -55 -19 -55 0 -64 -26 -12 -35 36 -7 76 5 95 28 20 23
35 198 20 213 -21 21 -61 25 -95 10z m63 -63 c-12 -68 -76 -94 -76 -31 0 46
17 68 51 68 31 0 31 -1 25 -37z"/>
<path d="M2350 3775 c0 -9 14 -43 31 -77 l31 -62 -17 -48 c-16 -46 -14 -68 6
-68 6 0 17 17 25 38 9 20 34 77 56 125 27 61 37 92 30 99 -16 16 -31 1 -54
-53 l-22 -49 -29 55 c-29 52 -57 72 -57 40z"/>
<path d="M3332 3765 c-34 -29 -44 -63 -30 -111 10 -37 38 -50 87 -41 15 3 33
1 40 -6 19 -19 35 6 21 33 -6 12 -10 44 -9 72 2 40 -1 53 -16 64 -28 21 -60
17 -93 -11z m66 -67 c-3 -46 -6 -53 -25 -56 -40 -6 -53 55 -21 96 6 6 19 12
30 12 17 0 19 -6 16 -52z"/>
<path d="M3656 3759 c-33 -39 -36 -99 -6 -129 27 -27 99 -27 131 -1 35 29 13
47 -30 25 -27 -13 -38 -14 -59 -4 l-26 11 49 27 c63 35 75 54 51 81 -29 32
-79 28 -110 -10z m84 -14 c0 -2 -18 -14 -41 -26 -39 -19 -42 -15 -16 19 9 11
57 18 57 7z"/>
<path d="M3824 3777 c-3 -8 -4 -49 -2 -93 2 -62 6 -79 18 -79 11 0 16 16 20
63 3 40 10 66 20 72 24 16 40 11 40 -11 0 -33 25 -16 28 19 4 39 -17 51 -59
35 -17 -7 -31 -7 -35 -2 -8 13 -24 11 -30 -4z"/>
<path d="M4294 3775 c-3 -8 9 -43 28 -77 l34 -63 -18 -49 c-13 -34 -16 -52 -8
-60 6 -6 13 -6 19 -1 18 19 111 240 107 252 -10 25 -26 13 -52 -39 l-26 -52
-18 34 c-10 19 -16 39 -13 44 4 5 1 6 -4 3 -6 -4 -13 0 -17 8 -7 19 -25 19
-32 0z"/>
<path d="M5358 3723 c7 -3 16 -2 19 1 4 3 -2 6 -13 5 -11 0 -14 -3 -6 -6z"/>
<path d="M5520 3711 c0 -6 4 -13 10 -16 6 -3 7 1 4 9 -7 18 -14 21 -14 7z"/>
<path d="M5220 3701 c0 -5 7 -12 16 -15 14 -5 15 -4 4 9 -14 17 -20 19 -20 6z"/>
<path d="M5384 3685 c9 -14 14 -30 11 -35 -3 -6 -2 -10 3 -10 5 0 12 11 14 24
4 18 1 23 -10 18 -9 -3 -13 -1 -9 5 4 6 0 14 -9 17 -15 6 -15 4 0 -19z"/>
<path d="M1295 3610 c-16 -30 -13 -50 6 -50 6 0 17 16 25 35 17 43 17 45 -1
45 -8 0 -22 -14 -30 -30z"/>
<path d="M5374 3606 c1 -8 5 -18 8 -22 4 -3 5 1 4 10 -1 8 -5 18 -8 22 -4 3
-5 -1 -4 -10z"/>
<path d="M5375 3489 c-4 -6 -5 -12 -2 -15 2 -3 7 2 10 11 7 17 1 20 -8 4z"/>
<path d="M4504 3213 c-6 -10 -93 -161 -193 -335 l-183 -318 89 -152 c49 -84
136 -235 194 -335 l104 -182 389 2 389 2 192 335 c139 241 190 339 184 350 -5
8 -91 157 -192 330 l-183 315 -389 3 c-363 2 -391 1 -401 -15z m941 -280 c88
-152 172 -298 188 -325 l27 -48 -27 0 c-26 0 -40 21 -201 301 -137 236 -172
306 -168 325 4 13 10 24 14 24 4 0 79 -125 167 -277z m-115 -110 c3 -3 -7 -3
-22 -1 -15 1 -26 -1 -25 -7 1 -5 14 -10 30 -10 15 0 26 -4 24 -10 -4 -10 -66
-16 -68 -6 -10 42 -6 49 25 44 17 -3 33 -7 36 -10z m50 -3 c10 -6 11 -10 3
-10 -7 0 -13 -4 -13 -9 0 -5 8 -8 17 -7 10 0 19 -7 21 -17 3 -14 0 -16 -21 -8
-14 5 -28 7 -31 4 -3 -4 -6 8 -6 25 0 34 6 38 30 22z m-164 -86 c16 -14 49
-81 62 -124 52 -175 85 -269 93 -264 5 3 6 -3 2 -12 -4 -12 -3 -15 5 -10 16
10 15 -16 -1 -37 -11 -16 -35 -18 -237 -18 -160 0 -228 -3 -239 -12 -14 -11
-14 -10 -2 6 12 15 11 17 -13 17 -16 0 -25 -4 -21 -10 4 -6 -7 -11 -24 -11
-41 -2 -48 -3 -55 -9 -8 -8 -329 -1 -338 8 -4 4 -45 73 -92 155 l-85 147 34 0
c26 0 35 -4 36 -17 1 -17 2 -17 6 0 8 29 22 19 28 -20 4 -21 11 -51 16 -67 5
-16 9 -43 9 -60 0 -17 7 -40 15 -50 9 -12 15 -15 15 -7 0 11 3 11 15 1 8 -7
15 -19 15 -26 0 -8 10 -14 25 -14 26 0 34 15 13 23 -10 3 -10 7 -1 18 7 8 15
33 18 54 13 100 13 105 2 98 -7 -4 -8 0 -4 11 4 10 7 26 7 37 0 17 8 19 75 19
l75 0 0 -37 c1 -56 33 -164 52 -176 13 -9 22 -7 37 8 23 20 22 20 38 -15 10
-21 11 -18 6 25 -3 28 -10 55 -15 62 -6 7 -5 19 1 31 6 11 8 22 5 25 -3 3 -7
21 -8 41 l-1 35 61 3 62 3 16 -57 c9 -32 16 -66 16 -76 0 -11 9 -29 20 -42 11
-13 20 -28 20 -35 0 -6 16 -16 35 -22 33 -10 35 -10 35 10 0 12 -5 38 -10 59
-6 20 -12 53 -15 75 -2 21 -12 79 -23 128 -17 82 -17 93 -3 123 12 26 19 31
35 26 24 -7 37 -24 30 -36 -3 -4 -1 -8 4 -8 10 0 68 -161 104 -289 22 -82 24
-85 62 -97 l38 -14 -7 48 c-12 77 -14 85 -25 132 -6 25 -15 54 -20 65 -13 29
-41 133 -47 180 -5 38 -5 39 13 25 10 -8 24 -20 30 -26z m-433 -334 c-4 -17
-8 -18 -20 -8 -13 10 -13 13 4 19 10 4 19 8 20 8 0 1 -1 -8 -4 -19z m529 -435
l-26 -55 -381 0 -381 0 -22 39 c-23 40 -19 59 6 38 13 -10 15 -9 9 6 -10 28 1
20 18 -13 l16 -30 354 0 c345 0 354 0 360 20 3 11 11 21 16 21 5 1 13 2 19 3
5 0 15 7 22 14 6 6 13 12 14 12 1 0 -10 -25 -24 -55z"/>
<path d="M1110 2599 c0 -5 9 -9 20 -9 11 0 20 2 20 4 0 2 -9 6 -20 9 -11 3
-20 1 -20 -4z"/>
<path d="M1168 2572 c-4 -12 -2 -25 4 -28 16 -10 22 4 11 28 l-10 22 -5 -22z"/>
<path d="M1060 2569 c0 -5 5 -7 10 -4 6 3 10 8 10 11 0 2 -4 4 -10 4 -5 0 -10
-5 -10 -11z"/>
<path d="M955 2550 c-3 -5 1 -10 9 -10 9 0 16 5 16 10 0 6 -4 10 -9 10 -6 0
-13 -4 -16 -10z"/>
<path d="M1111 2553 c0 -7 -8 -10 -16 -7 -21 8 -19 -8 5 -33 16 -18 25 -20 52
-12 24 6 38 5 55 -6 25 -17 29 -14 12 13 -8 13 -21 16 -54 14 -39 -4 -44 -1
-48 20 -2 12 -5 18 -6 11z"/>
<path d="M1025 2540 c-3 -5 1 -10 9 -10 9 0 16 5 16 10 0 6 -4 10 -9 10 -6 0
-13 -4 -16 -10z"/>
<path d="M3480 2530 c-9 -6 -10 -10 -3 -10 6 0 15 5 18 10 8 12 4 12 -15 0z"/>
<path d="M897 2513 c-3 -5 -1 -17 4 -28 7 -17 8 -17 8 8 1 27 -4 34 -12 20z"/>
<path d="M3425 2510 c-8 -13 5 -13 25 0 13 8 13 10 -2 10 -9 0 -20 -4 -23 -10z"/>
<path d="M3320 2489 c-19 -6 -69 -17 -110 -26 -41 -9 -77 -20 -80 -24 -3 -4
-12 -7 -20 -7 -85 5 -138 -14 -120 -42 8 -13 17 -11 61 13 55 30 73 29 44 -3
-10 -11 -16 -20 -14 -20 2 0 56 19 119 41 63 22 124 43 135 46 11 4 26 13 33
20 16 16 6 16 -48 2z"/>
<path d="M1075 2480 c4 -6 11 -8 16 -5 14 9 11 15 -7 15 -8 0 -12 -5 -9 -10z"/>
<path d="M1008 2473 c7 -3 16 -2 19 1 4 3 -2 6 -13 5 -11 0 -14 -3 -6 -6z"/>
<path d="M1235 2460 c-3 -5 1 -10 9 -10 9 0 16 5 16 10 0 6 -4 10 -9 10 -6 0
-13 -4 -16 -10z"/>
<path d="M1099 2433 c-1 -10 0 -30 1 -46 1 -17 -4 -29 -16 -34 -15 -5 -15 -8
-2 -17 23 -17 19 -47 -6 -41 -20 6 -20 5 2 -14 34 -30 27 -74 -13 -81 l-30 -6
33 -11 c18 -7 30 -8 27 -3 -4 6 1 13 9 16 13 5 16 27 16 130 0 76 -4 124 -10
124 -5 0 -10 -8 -11 -17z"/>
<path d="M1151 2343 c1 -54 3 -89 6 -78 3 11 12 26 21 33 14 11 14 13 -4 26
-17 13 -17 15 -2 21 9 4 25 2 37 -4 11 -6 28 -11 38 -11 10 0 -6 11 -36 25
-49 23 -53 27 -49 55 3 17 1 30 -4 30 -4 0 -7 -44 -7 -97z"/>
<path d="M1208 2433 c7 -3 16 -2 19 1 4 3 -2 6 -13 5 -11 0 -14 -3 -6 -6z"/>
<path d="M1280 2411 c0 -6 5 -13 10 -16 6 -3 10 1 10 9 0 9 -4 16 -10 16 -5 0
-10 -4 -10 -9z"/>
<path d="M2873 2407 c-47 -8 -63 -15 -63 -27 0 -21 -36 -23 -66 -3 -19 12 -37
14 -82 8 -31 -4 -60 -12 -64 -19 -6 -8 -8 -8 -8 2 0 7 -13 12 -31 12 -17 0
-28 -4 -24 -10 3 -5 1 -10 -4 -10 -18 0 -12 -18 7 -23 16 -4 16 -5 -1 -6 -27
-2 -10 -21 18 -21 16 0 26 -7 31 -22 9 -30 31 -51 39 -38 4 6 11 8 16 5 5 -4
9 -1 9 4 0 6 -6 11 -12 11 -7 0 -21 14 -30 30 -24 42 0 40 47 -4 24 -23 42
-32 55 -29 11 3 18 9 15 13 -20 32 119 96 151 69 18 -15 101 -16 115 -2 7 7 2
17 -15 31 -14 11 -26 25 -26 31 0 6 -3 10 -7 9 -5 0 -36 -6 -70 -11z m-123
-46 c0 -5 -16 -18 -36 -30 -31 -18 -37 -19 -50 -7 -19 20 -18 25 9 36 29 12
77 12 77 1z"/>
<path d="M1200 2398 c0 -17 21 -29 48 -27 14 0 14 2 2 6 -8 3 -23 12 -32 21
-16 14 -18 14 -18 0z"/>
<path d="M1530 2385 c0 -8 5 -15 10 -15 6 0 10 7 10 15 0 8 -4 15 -10 15 -5 0
-10 -7 -10 -15z"/>
<path d="M970 2380 c8 -5 22 -9 30 -9 10 0 8 3 -5 9 -27 12 -43 12 -25 0z"/>
<path d="M1307 2361 c-3 -15 -3 -38 0 -50 5 -18 1 -21 -25 -21 -17 0 -42 4
-56 10 -17 6 -26 6 -26 0 0 -6 9 -10 19 -10 11 0 23 -4 26 -10 3 -5 19 -10 34
-10 35 0 51 -17 51 -52 0 -22 -5 -28 -22 -28 -20 0 -19 -2 10 -20 31 -19 43
-40 22 -40 -5 0 -10 -4 -10 -10 0 -5 25 -10 55 -10 48 0 55 2 55 20 0 14 7 20
23 20 40 0 40 14 0 26 l-38 11 60 0 c75 1 95 -4 95 -23 0 -11 -9 -14 -35 -12
-36 3 -54 -14 -20 -20 48 -8 46 -17 -5 -23 -54 -6 -54 -7 20 -7 116 0 272 10
265 17 -4 3 -34 8 -68 11 -46 4 -62 9 -62 20 0 10 13 16 43 18 60 4 56 29 -5
37 -27 4 -54 14 -61 23 -10 14 -8 18 15 28 l28 12 -28 1 c-45 1 -67 18 -67 51
0 20 -5 30 -15 30 -8 0 -15 5 -15 12 0 6 -2 9 -5 7 -6 -6 11 -57 42 -129 40
-89 41 -94 41 -112 -2 -29 -13 -20 -32 25 -9 23 -21 50 -27 59 -5 10 -9 24 -9
32 0 7 -7 19 -15 26 -9 7 -14 19 -11 25 2 7 0 18 -5 26 -6 10 -9 10 -9 2 0
-15 -91 -18 -105 -4 -6 5 -19 12 -30 15 -11 3 -1 3 22 1 41 -5 41 -5 30 20
-10 20 -17 24 -36 20 -14 -4 -27 -1 -32 6 -4 6 -15 9 -24 5 -13 -5 -16 -13
-11 -34 33 -133 50 -222 43 -228 -14 -14 -27 10 -27 52 0 24 -4 44 -10 44 -5
0 -10 20 -10 44 0 25 -4 48 -10 51 -5 3 -10 19 -10 35 0 39 -16 47 -23 11z
m226 -97 c25 -9 21 -32 -5 -29 -13 1 -23 3 -23 4 0 1 -16 4 -35 7 -60 7 -68
17 -20 24 25 4 50 5 55 3 6 -1 18 -6 28 -9z"/>
<path d="M1492 2358 c2 -13 11 -24 21 -26 21 -4 22 14 3 34 -21 20 -28 17 -24
-8z"/>
<path d="M2820 2311 l-24 -19 41 11 c23 6 40 14 37 19 -8 13 -27 9 -54 -11z"/>
<path d="M2467 2313 c-11 -10 -8 -20 8 -27 10 -4 15 1 15 14 0 20 -11 26 -23
13z"/>
<path d="M900 2281 c0 -6 4 -13 10 -16 6 -3 7 1 4 9 -7 18 -14 21 -14 7z"/>
<path d="M988 2273 c7 -3 16 -2 19 1 4 3 -2 6 -13 5 -11 0 -14 -3 -6 -6z"/>
<path d="M1222 2254 c2 -11 16 -21 36 -25 33 -7 46 7 15 17 -10 3 -26 10 -36
15 -15 8 -18 7 -15 -7z"/>
<path d="M1028 2253 c7 -3 16 -2 19 1 4 3 -2 6 -13 5 -11 0 -14 -3 -6 -6z"/>
<path d="M1161 2216 c-18 -36 -17 -60 2 -64 9 -2 17 1 17 7 0 6 -4 11 -10 11
-5 0 -7 7 -4 15 6 16 22 15 67 -3 37 -16 47 -15 47 3 0 8 -7 15 -15 15 -9 0
-33 8 -55 19 -38 18 -38 18 -49 -3z"/>
<path d="M1807 2206 c-4 -10 -5 -21 -2 -24 9 -9 17 6 13 25 -3 17 -4 17 -11
-1z"/>
<path d="M1198 2148 c5 -5 16 -8 23 -6 8 3 3 7 -10 11 -17 4 -21 3 -13 -5z"/>
<path d="M1850 2140 c0 -5 7 -10 16 -10 8 0 12 5 9 10 -3 6 -10 10 -16 10 -5
0 -9 -4 -9 -10z"/>
<path d="M1839 2117 c5 -5 26 -7 47 -5 l39 3 -47 5 c-26 3 -43 1 -39 -3z"/>
</g>
</svg>
